<?xml version="1.0" encoding="utf-8"?>
<svg xml:space="preserve" viewBox="0 0 100 100" y="0px" x="0px" xmlns:xlink="http://www.w3.org/1999/xlink" xmlns="http://www.w3.org/2000/svg" id="Layer_1" version="1.1" width="200px" height="200px" style="height: 100%; width: 100%; background-color: rgb(255, 255, 255); shape-rendering: auto;"><g class="ldl-scale" style="transform-origin: 50% 50%; transform: rotate(0deg) scale(0.8, 0.8);"><g class="ldl-ani"><g class="ldl-layer"><g class="ldl-ani" style="transform-origin: 50px 50px; transform: rotate(0deg); animation: 1.111111s linear -0.634921s infinite normal forwards running spin-6caf1231-69f6-441e-ac4a-547d911b3be6;"><path d="M90.75,30.91c-0.88-1.87-3.15-2.61-4.94-1.58l-0.01,0.01c1.79-1.03,2.29-3.37,1.11-5.06C79.47,13.61,67.53,6.32,53.84,5.16 C51.78,4.99,50,6.58,50,8.65v0.01c0-2.06-1.77-3.67-3.83-3.49c-12.96,1.12-25.24,7.81-33.09,19.08c-1.18,1.7-0.69,4.04,1.1,5.07 l2.8,1.62l-2.79-1.61c-1.79-1.03-4.06-0.3-4.94,1.57C3.75,42.68,3.41,56.66,9.25,69.09c0.88,1.87,3.15,2.61,4.94,1.58l7.66-4.42 c-6.01-10.42-5.6-22.77,0-32.5l0,0C27.87,23.33,38.78,17.51,50,17.5v0c12.03,0,22.52,6.54,28.14,16.25l0,0 c6.01,10.42,5.6,22.77,0,32.5l0,0C72.13,76.67,61.22,82.49,50,82.5v8.84c0,2.06,1.77,3.67,3.83,3.49 c12.96-1.12,25.24-7.81,33.09-19.08c1.18-1.7,0.69-4.04-1.1-5.07l-2.8-1.62l2.79,1.61c1.79,1.03,4.06,0.3,4.94-1.57 C96.25,57.32,96.59,43.34,90.75,30.91z" stroke-miterlimit="10" stroke-linejoin="round" stroke-linecap="round" stroke-width="3.5" stroke="#323334" fill="#F6B26A" style="fill: rgb(246, 178, 106); stroke: rgb(50, 51, 52);"></path></g></g><g class="ldl-layer"><g class="ldl-ani" style="transform-origin: 50px 50px; transform: rotate(0deg); animation: 1.111111s linear -0.714286s infinite normal forwards running spin-6caf1231-69f6-441e-ac4a-547d911b3be6;"><path d="M19.4,67.67c1.99,1.38,4.57,1.87,7.07,1.09l0,0c2.75-0.85,5.53,1.2,5.53,4.07v0c0,1.49,1,2.87,2.46,3.12C36.36,76.28,38,74.83,38,73 c0,0,0-7.27,0-12.03c0-2.5,1.34-4.81,3.5-6.07L50,50v32.5c11.22-0.01,22.13-5.83,28.15-16.25l0,0c5.6-9.72,6.02-22.08,0-32.5l0,0 C72.52,24.04,62.03,17.5,50,17.5v0c-11.22,0.01-22.13,5.83-28.15,16.25l0,0c-5.6,9.72-6.02,22.08,0,32.5L31,61" stroke-miterlimit="10" stroke-linejoin="round" stroke-linecap="round" stroke-width="3.5" stroke="#323334" fill="#F5E169" style="fill: rgb(245, 225, 105); stroke: rgb(50, 51, 52);"></path></g></g><g class="ldl-layer"><g class="ldl-ani" style="transform-origin: 50px 50px; transform: rotate(0deg); animation: 1.111111s linear -0.793651s infinite normal forwards running spin-6caf1231-69f6-441e-ac4a-547d911b3be6;"><circle r="5.5" cy="32.68" cx="40" stroke-miterlimit="10" stroke-width="3.5" stroke="#323334" fill="#C33836" style="fill: rgb(195, 56, 54); stroke: rgb(50, 51, 52);"></circle></g></g><g class="ldl-layer"><g class="ldl-ani" style="transform-origin: 50px 50px; transform: rotate(0deg); animation: 1.111111s linear -0.873016s infinite normal forwards running spin-6caf1231-69f6-441e-ac4a-547d911b3be6;"><circle r="5.5" cy="50" cx="30" stroke-miterlimit="10" stroke-width="3.5" stroke="#323334" fill="#C33836" style="fill: rgb(195, 56, 54); stroke: rgb(50, 51, 52);"></circle></g></g><g class="ldl-layer"><g class="ldl-ani" style="transform-origin: 50px 50px; transform: rotate(0deg); animation: 1.111111s linear -0.952381s infinite normal forwards running spin-6caf1231-69f6-441e-ac4a-547d911b3be6;"><circle r="5.5" cy="67.32" cx="60" stroke-miterlimit="10" stroke-width="3.5" stroke="#323334" fill="#C33836" style="fill: rgb(195, 56, 54); stroke: rgb(50, 51, 52);"></circle></g></g><g class="ldl-layer"><g class="ldl-ani" style="transform-origin: 50px 50px; transform: rotate(0deg); animation: 1.111111s linear -1.031746s infinite normal forwards running spin-6caf1231-69f6-441e-ac4a-547d911b3be6;"><circle r="5.5" cy="50" cx="70" stroke-miterlimit="10" stroke-width="3.5" stroke="#323334" fill="#C33836" style="fill: rgb(195, 56, 54); stroke: rgb(50, 51, 52);"></circle></g></g><g class="ldl-layer"><g class="ldl-ani" style="transform-origin: 50px 50px; transform: rotate(0deg); animation: 1.111111s linear -1.111111s infinite normal forwards running spin-6caf1231-69f6-441e-ac4a-547d911b3be6;"><circle r="5.5" cy="32.68" cx="60" stroke-miterlimit="10" stroke-width="3.5" stroke="#323334" fill="#C33836" style="fill: rgb(195, 56, 54); stroke: rgb(50, 51, 52);"></circle></g></g><metadata xmlns:d="https://loading.io/stock/">
<d:name>pizza</d:name>
<d:tags>pizza,delicious,food,yummy,bread,cheese,pepper,vegetable,sausage</d:tags>
<d:license>by</d:license>
<d:slug>dig40s</d:slug>
</metadata></g></g><style id="spin-6caf1231-69f6-441e-ac4a-547d911b3be6" data-anikit="">@keyframes spin-6caf1231-69f6-441e-ac4a-547d911b3be6
{
  0% {
    animation-timing-function: cubic-bezier(0.5856,0.0703,0.4143,0.9297);
    transform: rotate(0deg);
  }
  100% {
    transform: rotate(360deg);
  }
}</style><!-- [ldio] generated by https://loading.io/ --></svg>